<svg width="25" height="46" xmlns="http://www.w3.org/2000/svg">
	<style type="text/css">
    	<![CDATA[
    	.facebook { fill: #000; transition: fill 0.3s; }
	    .facebook:hover { fill: #4e86b1; cursor: pointer;}
    	]]>
	</style>
 <g>
  <title>background</title>
  <rect fill="none" id="canvas_background" height="48" width="27" y="-1" x="-1"/>
 </g>
 <g>
  <title>Layer 1</title>
  <path class="facebook" stroke="null" id="svg_2" fill="#A7A7A7" d="m16.220187,33.822725c0,3.502817 -0.009041,6.99692 0.009041,10.499737c0,0.383393 -0.108487,0.487955 -0.506271,0.479241c-3.091868,-0.017427 -6.174696,-0.017427 -9.266565,0c-0.424906,0 -0.560514,-0.095848 -0.560514,-0.522808c0.018081,-6.94464 0.009041,-13.880566 0.009041,-20.825205c0,-0.697078 0.081365,-0.609943 -0.65996,-0.618657c-1.31088,0 -2.62176,-0.008713 -3.93264,0.008713c-0.316419,0 -0.406825,-0.095848 -0.406825,-0.40082c0.009041,-2.204509 0.009041,-4.417732 0,-6.622241c0,-0.304972 0.090406,-0.40082 0.406825,-0.392106c1.374164,0.017427 2.739287,-0.008713 4.113451,0.017427c0.370663,0.008713 0.48819,-0.087135 0.48819,-0.461814c-0.018081,-1.85597 0,-3.720654 -0.009041,-5.576624c-0.009041,-1.542285 0.235054,-3.032289 1.039663,-4.391591c0.867893,-1.481291 2.169732,-2.500767 3.77895,-3.162991c1.356083,-0.557662 2.78449,-0.819067 4.249059,-0.897488c2.902017,-0.156843 5.813074,-0.02614 8.715091,-0.078421c0.32546,-0.008713 0.406825,0.104562 0.406825,0.40082c-0.009041,2.291644 -0.009041,4.592001 0,6.883645c0,0.348539 -0.135608,0.40082 -0.452028,0.40082c-1.672502,-0.008713 -3.345004,-0.008713 -5.017506,-0.008713c-1.392245,0 -2.395746,0.967196 -2.395746,2.291644c0,1.368016 0.018081,2.727318 -0.009041,4.095333c-0.009041,0.392106 0.126568,0.487955 0.515311,0.487955c2.287259,-0.017427 4.583559,0 6.870819,-0.017427c0.379703,0 0.506271,0.104562 0.461068,0.470528c-0.135608,1.124038 -0.253135,2.248077 -0.379703,3.372115c-0.117527,1.080471 -0.316419,2.152228 -0.49723,3.223986c-0.054243,0.304972 -0.153689,0.374679 -0.442987,0.374679c-1.9618,-0.008713 -3.914559,-0.008713 -5.876358,0c-0.768447,0 -0.65996,-0.095848 -0.65996,0.653511c0.009041,3.433109 0.009041,6.874932 0.009041,10.316754z"/>
 </g>
</svg>