<svg width="45" height="46" xmlns="http://www.w3.org/2000/svg">
	<style type="text/css">
    	<![CDATA[
    	.google_plus { fill: #000; transition: fill 0.3s; }
	    .google_plus_wrap:hover .google_plus { fill: #4e86b1; }
    	]]>
	</style>
 <g>
  <title>background</title>
  <rect fill="none" id="canvas_background" height="48" width="47" y="-1" x="-1"/>
 </g>
 <g class="google_plus_wrap">
  <title>Layer 1</title>
  <path class="google_plus" stroke="null" id="svg_1" d="m44.684083,20.229242l-7.849175,0l0,-6.987497l-1.681966,0l0,6.987497l-7.568848,0l0,2.149999l7.568848,0l0,6.987497l1.681966,0l0,-6.987497l7.849175,0l0,-2.149999z" fill="#A7A7A7"/>
  <path class="google_plus" stroke="null" id="svg_2" d="m22.494282,26.155618c-1.323193,-0.679367 -3.638781,-3.05715 -3.638781,-4.415884s0.330798,-2.377783 2.646386,-4.0762c2.315588,-1.698417 3.969579,-4.0762 3.969579,-7.13335c0,-3.736517 -1.653991,-7.13335 -4.300377,-8.1524l4.300377,0l2.977184,-2.377783c0,0 -10.254746,0 -13.893527,0c-6.285167,0 -11.908738,4.755567 -11.908738,10.530184s4.300377,10.190501 10.585544,10.190501c0.330798,0 0.992395,0 1.323193,0c-0.661597,0.679367 -0.661597,1.358733 -0.661597,2.377783c0,1.698417 0.992395,2.717467 1.98479,4.0762c-0.661597,0 -1.653991,0 -2.315588,0c-7.60836,0 -13.562729,5.09525 -13.562729,10.190501s6.615965,8.492084 14.224325,8.492084c8.600755,0 13.562729,-5.09525 13.562729,-10.190501c-0.330798,-4.415884 -1.653991,-6.793667 -5.292772,-9.511134zm-7.277562,-7.13335c-3.638781,0 -6.946764,-4.0762 -7.60836,-8.831767s1.653991,-8.492084 5.292772,-8.492084c3.638781,0 6.946764,4.0762 7.60836,8.831767s-1.653991,8.831767 -5.292772,8.492084zm-1.323193,24.457201c-5.292772,0 -9.262351,-3.396834 -9.262351,-7.473034s4.631176,-7.473034 9.923948,-7.473034c1.323193,0 2.315588,0.339683 3.307983,0.679367c2.977184,2.0381 4.961974,3.05715 5.62357,5.434934c0,0.339683 0.330798,1.01905 0.330798,1.358733c0,4.0762 -2.646386,7.473034 -9.923948,7.473034z" fill="#A7A7A7"/>
 </g>
</svg>