<svg width="44" height="46" xmlns="http://www.w3.org/2000/svg">
	<style type="text/css">
    	<![CDATA[
    	.instagram { fill: #000; transition: fill 0.3s; }
	    .instagram:hover { fill: #4e86b1; }
    	]]>
	</style>
 <g>
  <title>background</title>
  <rect fill="none" id="canvas_background" height="48" width="46" y="-1" x="-1"/>
 </g>
 <g>
  <title>Layer 1</title>
  <path class="instagram" stroke="null" id="svg_2" fill="#A7A7A7" d="m41.97915,1.716832c-1.098274,-1.144728 -2.414413,-1.716832 -3.947719,-1.716832l-32.435902,0c-1.533804,0 -2.849544,0.572312 -3.948117,1.716832c-1.098374,1.144209 -1.647412,2.515436 -1.647412,4.11337l0,33.798336c0,1.597726 0.548938,2.969264 1.647412,4.113577c1.098573,1.144417 2.414612,1.716936 3.948117,1.716936l32.435504,0c1.533008,0 2.849544,-0.572519 3.947819,-1.716936c1.098573,-1.144313 1.647113,-2.515851 1.647113,-4.113577l0,-33.798336c-0.000099,-1.598244 -0.54854,-2.968745 -1.646815,-4.11337zm-26.314713,14.664187c1.713467,-1.726162 3.772732,-2.589657 6.177495,-2.589657c2.423366,0 4.491882,0.863496 6.205748,2.589657c1.713865,1.726473 2.5703,3.813167 2.5703,6.259669c0,2.446191 -0.856435,4.532989 -2.5703,6.258944c-1.713865,1.726887 -3.781685,2.590279 -6.205748,2.590279c-2.404664,0 -4.463729,-0.864118 -6.177495,-2.590279c-1.713865,-1.726162 -2.570698,-3.812753 -2.570698,-6.258944c0,-2.446502 0.856833,-4.533093 2.570698,-6.259669zm23.020288,22.034583c0,0.512603 -0.170909,0.941552 -0.511434,1.287054c-0.34152,0.345191 -0.748,0.51789 -1.22183,0.51789l-30.361715,0c-0.492234,0 -0.904385,-0.172699 -1.235459,-0.51789c-0.331571,-0.344776 -0.497208,-0.774451 -0.497208,-1.287054l0,-19.178724l4.004623,0c-0.378527,1.243206 -0.56784,2.535754 -0.56784,3.877126c0,3.789118 1.325291,7.0194 3.976171,9.693438c2.651179,2.673001 5.841646,4.010123 9.571799,4.010123c2.461567,0 4.733622,-0.61191 6.81716,-1.83511c2.082842,-1.223925 3.729159,-2.885817 4.941837,-4.987335c1.211982,-2.101414 1.817923,-4.395224 1.817923,-6.881013c0,-1.341372 -0.190009,-2.63361 -0.568536,-3.877126l3.834709,0l0,19.178724l-0.000199,0l0,-0.000104zm0,-26.429703c0,0.572208 -0.189313,1.055683 -0.568636,1.450216c-0.378527,0.394844 -0.842209,0.592008 -1.391645,0.592008l-4.941837,0c-0.548839,0 -1.013218,-0.197267 -1.391744,-0.592008c-0.378626,-0.394534 -0.56784,-0.878008 -0.56784,-1.450216l0,-4.882845c0,-0.552513 0.189214,-1.030908 0.56784,-1.435497c0.378626,-0.404381 0.843005,-0.606831 1.391744,-0.606831l4.941837,0c0.549436,0 1.013218,0.202346 1.391645,0.606831c0.379223,0.404589 0.568636,0.882984 0.568636,1.435497l0,4.882845z"/>
 </g>
</svg>