<svg width="45" height="46" xmlns="http://www.w3.org/2000/svg">
	<style type="text/css">
    	<![CDATA[
    	.pinterest { fill: #000; transition: fill 0.3s; }
	    .pinterest:hover { fill: #4e86b1; }
    	]]>
	</style>
 <g>
  <title>background</title>
  <rect fill="none" id="canvas_background" height="48" width="47" y="-1" x="-1"/>
 </g>
 <g>
  <title>Layer 1</title>
  <path class="pinterest" stroke="null" id="svg_3" fill="#A7A7A7" d="m22.282431,0c3.080088,0 5.97577,0.595925 8.686731,1.787775c2.711355,1.19185 5.06939,2.808195 7.074655,4.849034c2.005265,2.040839 3.593357,4.440866 4.764511,7.200081c1.171154,2.759215 1.756613,5.706186 1.756613,8.840915c0,3.134649 -0.585459,6.081701 -1.75677,8.840915c-1.171154,2.759455 -2.759245,5.159161 -4.764511,7.200001s-4.3633,3.657264 -7.074655,4.849034c-2.710883,1.19193 -5.606486,1.787935 -8.686574,1.787935c-1.122949,0 -2.205792,-0.081714 -3.24853,-0.245141c-1.042738,-0.163347 -2.061413,-0.391841 -3.056025,-0.685722c0.417095,-0.685562 0.83419,-1.444994 1.251286,-2.277657c0.417095,-0.832342 0.737938,-1.689575 0.962527,-2.571377c0.064168,-0.228414 0.160421,-0.620415 0.288758,-1.175523c0.128337,-0.457228 0.288758,-1.085726 0.481264,-1.885815c0.192505,-0.800009 0.465222,-1.852922 0.818148,-3.159299c0.385011,0.751109 1.082843,1.404177 2.093497,1.959126c1.01089,0.555268 2.12566,0.832662 3.344861,0.832662c1.796718,0 3.433014,-0.391841 4.90889,-1.175523c1.476033,-0.783762 2.743124,-1.869489 3.801983,-3.257259c1.059016,-1.387771 1.87685,-3.028605 2.454681,-4.922504c0.577516,-1.893899 0.866275,-3.950985 0.866275,-6.171498c0,-1.665325 -0.336963,-3.281669 -1.010654,-4.849034c-0.673769,-1.567364 -1.620333,-2.955135 -2.839534,-4.163312s-2.703019,-2.171453 -4.451611,-2.889828c-1.748434,-0.718375 -3.68151,-1.077563 -5.799228,-1.077563c-2.662992,0 -4.989022,0.432658 -6.978324,1.297974c-1.989223,0.865316 -3.641562,1.983696 -4.957016,3.35514s-2.310066,2.897992 -2.983835,4.579643c-0.673769,1.681651 -1.010654,3.322486 -1.010654,4.922504c0,1.959206 0.368969,3.730574 1.106907,5.314345c0.737938,1.583611 1.892971,2.702071 3.465099,3.35514c0.256674,0.0982 0.489285,0.0982 0.697832,0c0.208548,-0.09804 0.344906,-0.293881 0.409074,-0.587762c0.064168,-0.196001 0.136358,-0.489881 0.216569,-0.881643c0.080211,-0.391841 0.1524,-0.702129 0.216569,-0.930703c0.064168,-0.293881 0.080211,-0.514452 0.048126,-0.661392s-0.144379,-0.351104 -0.336885,-0.612092c-0.449179,-0.555268 -0.810127,-1.183607 -1.082843,-1.885815c-0.272716,-0.701889 -0.409074,-1.558961 -0.409074,-2.571377c0,-1.436751 0.256674,-2.808195 0.770022,-4.114332c0.513348,-1.306137 1.243265,-2.45717 2.18975,-3.4531c0.946485,-0.99593 2.093497,-1.787775 3.441035,-2.375537s2.87154,-0.881643 4.571927,-0.881643c1.476111,0 2.791329,0.220411 3.946677,0.661232c1.155033,0.440821 2.133524,1.04491 2.935709,1.812265c0.802028,0.767356 1.403686,1.681651 1.80466,2.742888c0.401053,1.061236 0.601422,2.21227 0.601422,3.4531c0,1.632671 -0.168521,3.183709 -0.505327,4.653033c-0.336963,1.469484 -0.818148,2.751131 -1.44387,3.845021c-0.625564,1.09389 -1.371366,1.959206 -2.237798,2.596108c-0.866275,0.636822 -1.828802,0.955113 -2.887661,0.955113c-0.577516,0 -1.114928,-0.114287 -1.612233,-0.342781c-0.497306,-0.228414 -0.906301,-0.538621 -1.227144,-0.930703c-0.320842,-0.391761 -0.553453,-0.857072 -0.697832,-1.395694c-0.144379,-0.538782 -0.136358,-1.102133 0.024063,-1.689735c0.160421,-0.718615 0.352927,-1.444994 0.577516,-2.179616s0.441158,-1.444994 0.649627,-2.130716c0.208548,-0.685402 0.385011,-1.346874 0.52939,-1.983616s0.216569,-1.21634 0.216569,-1.738795c0,-0.946949 -0.248653,-1.755122 -0.745959,-2.424517c-0.497227,-0.669395 -1.259228,-1.004093 -2.285924,-1.004093c-0.577516,0 -1.13097,0.14694 -1.66036,0.440821s-0.986591,0.710212 -1.371602,1.248994s-0.689811,1.16736 -0.914401,1.885735s-0.336885,1.485731 -0.336885,2.302067c0,0.424495 0.032084,0.848989 0.096253,1.273404c0.064168,0.359188 0.136358,0.742945 0.216569,1.151273c0.080211,0.408168 0.216569,0.791926 0.409074,1.151113c-0.641685,2.644848 -1.138991,4.775564 -1.491917,6.391668c-0.352927,1.616265 -0.641685,2.865578 -0.866275,3.746981c-0.256674,1.04483 -0.433137,1.795858 -0.52939,2.253086c-0.192505,0.848749 -0.312821,1.730552 -0.360948,2.644848s-0.056147,1.763365 -0.024063,2.546967c-1.957139,-0.881803 -3.753857,-2.024592 -5.390153,-3.42877s-3.039982,-3.003875 -4.211057,-4.800134c-1.171075,-1.795858 -2.085476,-3.755144 -2.743203,-5.877537c-0.657963,-2.122313 -0.986827,-4.342746 -0.986827,-6.660979c0,-3.134729 0.585538,-6.081701 1.756613,-8.840915s2.759245,-5.159241 4.764511,-7.200081s4.363458,-3.657184 7.074576,-4.849034c2.71104,-1.19185 5.606644,-1.787775 8.686731,-1.787775z"/>
 </g>
</svg>