<svg width="45" height="46" xmlns="http://www.w3.org/2000/svg">
	<style type="text/css">
    	<![CDATA[
    	.rss { fill: #000; transition: fill 0.3s; }
	    .rss_wrap:hover .rss { fill: #4e86b1; }
    	]]>
	</style>
 <g>
  <title>background</title>
  <rect fill="none" id="canvas_background" height="48" width="47" y="-1" x="-1"/>
 </g>
 <g class="rss_wrap">
  <title>Layer 1</title>
  <path class="rss" stroke="null" id="svg_2" fill="#A7A7A7" d="m0.518143,6.19633c0,-1.227323 0.017708,-2.454647 -0.008854,-3.68197c-0.008854,-0.338572 0.123955,-0.389358 0.433844,-0.389358c2.408275,0 4.789987,0.262393 7.162846,0.651751c1.85933,0.313179 3.683243,0.753323 5.480595,1.295038c2.567646,0.770251 5.02019,1.785967 7.375341,3.013291c3.090029,1.608217 5.941001,3.538077 8.544062,5.806509c2.071824,1.802896 3.957716,3.775078 5.64882,5.916545c1.363508,1.735181 2.594207,3.555006 3.674389,5.467937c1.168721,2.073753 2.142656,4.23215 2.948365,6.45826c1.027058,2.860933 1.717666,5.789581 2.10724,8.785943c0.194787,1.481252 0.318742,2.970969 0.309888,4.46915c-0.008854,0.744858 0.008854,0.744858 -0.796856,0.744858c-2.372859,0 -4.754571,-0.008464 -7.12743,0.008464c-0.389574,0 -0.504675,-0.093107 -0.495821,-0.474001c0.035416,-3.004826 -0.442698,-5.950403 -1.274969,-8.836729c-0.947373,-3.250291 -2.364005,-6.297439 -4.232188,-9.166836c-1.744228,-2.674719 -3.833761,-5.061651 -6.250889,-7.18619c-2.966073,-2.607004 -6.304013,-4.655365 -10.022672,-6.16201c-2.098386,-0.854894 -4.25875,-1.498181 -6.481092,-1.946789c-2.116094,-0.423215 -4.267604,-0.685608 -6.445676,-0.634822c-0.451551,0.008464 -0.575507,-0.1185 -0.566653,-0.541715c0.04427,-1.201931 0.017708,-2.403861 0.017708,-3.597327z"/>
  <path class="rss" stroke="null" id="svg_3" fill="#A7A7A7" d="m25.069943,44.747254c-1.255165,0 -2.501491,-0.008458 -3.756656,0.008458c-0.353568,0.008458 -0.477316,-0.067665 -0.486155,-0.439825c-0.026518,-3.653933 -1.060703,-7.037204 -3.076038,-10.149814c-1.688285,-2.605119 -3.862726,-4.719663 -6.558679,-6.369008c-2.147923,-1.319476 -4.48147,-2.165294 -6.956443,-2.64741c-1.09606,-0.211454 -2.209798,-0.338327 -3.332375,-0.296036c-0.335889,0.016916 -0.415442,-0.101498 -0.415442,-0.405993c0.008839,-2.469788 0.008839,-4.931118 0,-7.400906c0,-0.321411 0.097231,-0.405993 0.424281,-0.397534c2.819702,0.067665 5.586368,0.482116 8.273482,1.319476c3.394249,1.048814 6.470288,2.664326 9.236954,4.821162c3.023003,2.359832 5.453781,5.184863 7.301171,8.475095c1.352396,2.402123 2.315868,4.939576 2.908094,7.61236c0.371246,1.700094 0.574547,3.408646 0.609904,5.142572c0.017678,0.727403 0.008839,0.727403 -0.76901,0.727403c-1.131416,0 -2.271672,0 -3.403088,0z"/>
  <path class="rss" stroke="null" id="svg_4" fill="#A7A7A7" d="m6.485226,33.132541c3.110062,-0.123695 5.897466,2.694793 5.834727,5.919709c-0.062739,3.260258 -2.652963,5.849026 -5.951242,5.849026c-3.199689,0 -5.87954,-2.730134 -5.84369,-5.999228c0.044814,-3.048208 2.679852,-5.928544 5.960205,-5.769507z"/>
 </g>
</svg>