<svg width="53" height="46" xmlns="http://www.w3.org/2000/svg">
	<style type="text/css">
    	<![CDATA[
    	.stumbleupon { fill: #000; transition: fill 0.3s; }
	    .stumbleupon_wrap:hover .stumbleupon { fill: #4e86b1; }
    	]]>
	</style>
 <g>
  <title>background</title>
  <rect fill="none" id="canvas_background" height="48" width="55" y="-1" x="-1"/>
 </g>
 <g class="stumbleupon_wrap">
  <title>Layer 1</title>
  <path class="stumbleupon" stroke="null" id="svg_2" fill="#A7A7A7" d="m14.831109,24.743257c0,-2.552304 -0.010596,-5.094062 0,-7.646366c0.031788,-4.61946 2.108634,-8.099875 6.082191,-10.399058c3.062288,-1.782394 6.368287,-2.024969 9.716671,-0.854284c3.443749,1.212872 5.83848,3.564789 7.194787,6.96083c0.540404,1.349979 0.762923,2.752692 0.762923,4.208138c0,1.023031 -0.010596,2.035515 0.010596,3.058547c0,0.274215 -0.084769,0.411322 -0.349673,0.495695c-1.409288,0.400775 -2.850365,0.73827 -4.227864,1.255059c-0.741731,0.274215 -1.29273,0.042187 -1.886115,-0.221481c-0.731134,-0.326948 -1.451673,-0.696083 -2.182807,-1.023031c-0.286096,-0.126561 -0.392058,-0.284761 -0.392058,-0.601163c0.021192,-0.949204 0.021192,-1.898408 0,-2.847612c-0.042385,-1.645287 -1.335115,-2.847612 -2.892749,-2.847612c-1.547038,0.010547 -2.797384,1.328886 -2.797384,2.953079c0,5.463197 -0.021192,10.936941 0,16.400137c0.010596,2.583944 -0.667558,4.935861 -2.161615,7.045204c-1.557634,2.193716 -3.63448,3.701896 -6.219941,4.513993c-1.525846,0.474602 -3.072884,0.632803 -4.641114,0.485149c-1.70598,-0.158201 -3.316595,-0.664443 -4.821249,-1.53982c-1.674192,-0.970298 -3.030499,-2.235903 -4.068922,-3.84955c-0.921865,-1.434353 -1.536442,-2.963626 -1.758961,-4.661647c-0.381461,-2.889799 -0.074173,-5.790145 -0.180135,-8.679944c-0.010596,-0.379682 0.190731,-0.432415 0.498019,-0.432415c2.723211,0.010547 5.435826,0.010547 8.159037,0c0.423846,0 0.540404,0.147654 0.540404,0.548429c-0.010596,2.21481 0.031788,4.429619 -0.021192,6.644429c-0.031788,1.339432 0.911269,2.37301 1.811942,2.699958c1.260942,0.442962 2.53248,0.010547 3.305999,-1.065218c0.381461,-0.527336 0.519211,-1.128498 0.519211,-1.771848c0,-2.963626 0,-5.895612 0,-8.827598z"/>
  <path class="stumbleupon" stroke="null" id="svg_3" fill="#A7A7A7" d="m48.484327,26.533981c1.326749,0 2.663863,0.010685 3.990611,-0.010685c0.383513,0 0.507896,0.128219 0.507896,0.523559c-0.010365,2.436154 0.062191,4.882993 -0.031096,7.319147c-0.145113,3.696971 -1.637705,6.742164 -4.457046,9.050099c-1.544418,1.260817 -3.285776,2.040813 -5.244803,2.393415c-1.668801,0.299177 -3.316872,0.256437 -4.913116,-0.203013c-2.985185,-0.844106 -5.348456,-2.607112 -6.986161,-5.395868c-1.129809,-1.912595 -1.710262,-3.953408 -1.699897,-6.197234c0.010365,-2.297251 0,-4.594501 0,-6.891752c0,-0.544929 0.041461,-0.566299 0.507896,-0.331231c0.860314,0.43808 1.741358,0.844106 2.591306,1.282186c0.373148,0.192328 0.746296,0.117534 1.098714,0.010685c1.399305,-0.427395 2.788245,-0.865476 4.177185,-1.324926c0.321322,-0.106849 0.487166,-0.074794 0.497531,0.299177c0.010365,0.192328 0.031096,0.384656 0.031096,0.587669c0,2.158347 0.051826,4.306009 -0.010365,6.464356c-0.041461,1.538624 1.129809,2.671222 2.135236,2.874235c1.378575,0.277807 2.632767,-0.43808 3.202854,-1.816431c0.124383,-0.288492 0.103652,-0.587669 0.103652,-0.89753c0,-2.372045 0.02073,-4.733405 -0.010365,-7.10545c0,-0.50219 0.103652,-0.683833 0.621913,-0.662463c1.295653,0.053424 2.591306,0.032055 3.886959,0.032055z"/>
 </g>
</svg>