<svg width="44" height="46" xmlns="http://www.w3.org/2000/svg">
 <g>
  <title>background</title>
  <rect fill="none" id="canvas_background" height="46" width="44" y="-1" x="-1"/>
 </g>
 <g>
  <title>Layer 1</title>
  <path stroke="null" id="svg_2" fill="#A7A7A7" d="m0.649007,36.218664c4.655775,0.420307 8.82103,-0.733477 12.595534,-3.535526c-0.581972,-0.131861 -1.11406,-0.131861 -1.621207,-0.255481c-2.968056,-0.700512 -5.021586,-2.472396 -6.227099,-5.233237c-0.058197,-0.140102 -0.207847,-0.31317 -0.074825,-0.453273c0.099767,-0.107137 0.290986,-0.016483 0.432322,0c1.047549,0.107137 2.095099,0.074172 3.12602,-0.164826c0.016628,-0.181309 -0.116394,-0.164826 -0.216161,-0.197792c-2.552362,-0.675788 -4.406358,-2.183949 -5.603558,-4.516243c-0.548716,-1.071371 -0.848016,-2.192191 -0.881272,-3.395423c-0.016628,-0.469755 0.008314,-0.477996 0.44895,-0.271964c1.047549,0.494479 2.144982,0.774684 3.400378,0.832373c-0.573658,-0.461514 -1.089119,-0.865338 -1.529755,-1.351576c-1.338535,-1.475196 -2.086785,-3.197632 -2.244749,-5.183789c-0.124708,-1.615298 0.216161,-3.12346 0.922841,-4.573932c0.157964,-0.321411 0.2993,-0.296687 0.498833,-0.057689c1.388419,1.681229 3.009626,3.106977 4.797111,4.343175c1.330221,0.923028 2.743582,1.68947 4.231767,2.340535c1.962077,0.848856 3.998978,1.417507 6.110704,1.755401c0.665111,0.107137 1.346849,0.131861 2.020274,0.197792c0.340869,0.032965 0.432322,-0.065931 0.365811,-0.412066c-0.340869,-1.780125 -0.10808,-3.510802 0.673425,-5.134342c1.338535,-2.769083 3.583284,-4.450312 6.634479,-4.895343c2.710326,-0.395583 5.146294,0.370859 7.166568,2.258121c0.307614,0.288446 0.581972,0.362618 0.997666,0.255481c1.629521,-0.412066 3.184217,-0.9972 4.647461,-1.821331c0.041569,-0.024724 0.091453,-0.032965 0.241103,-0.090655c-0.681738,1.986158 -1.887252,3.453113 -3.57497,4.573932c0.390753,0.074172 1.546382,-0.131861 2.344515,-0.379101c0.764877,-0.238998 1.529755,-0.453273 2.261376,-0.774684c0.099767,0.107137 0.008314,0.164826 -0.033256,0.222516c-0.972724,1.359818 -2.086785,2.587774 -3.417006,3.609698c-0.182905,0.140102 -0.357497,0.296687 -0.548716,0.428549c-0.141336,0.098896 -0.14965,0.222516 -0.141336,0.362618c0.058197,1.49992 -0.049883,2.991599 -0.266044,4.466795c-0.224475,1.508161 -0.606914,2.975116 -1.11406,4.417347c-0.415694,1.178509 -0.906213,2.324052 -1.488185,3.43663c-1.438302,2.736118 -3.308926,5.142583 -5.645127,7.194671c-2.485851,2.175708 -5.312572,3.741559 -8.471847,4.714034c-1.97039,0.609858 -3.990664,0.964234 -6.060821,1.071371c-1.596266,0.082413 -3.184217,0.057689 -4.763855,-0.140102c-2.261376,-0.271964 -4.439614,-0.881821 -6.534712,-1.771884c-1.072491,-0.453273 -2.086785,-0.9972 -3.101079,-1.565851c-0.141336,-0.057689 -0.282672,-0.12362 -0.357497,-0.304929z"/>
 </g>
</svg>